<?xml version="1.0" encoding="UTF-8"?>
<svg id="Layer_2" data-name="Layer 2" xmlns="http://www.w3.org/2000/svg" version="1.1" viewBox="0 0 31.88 32">
  <g>
    <path d="M27.69,14.25c-.32,0-.38-.04-.25-.12.1-.06.38-.12.62-.12.32,0,.38.04.25.12-.1.06-.38.12-.62.12Z" fill="#fff" stroke-width="0"/>
    <path d="M29.37,20.94c.09-.02.36-.21.62-.41.27-.2.49-.37.52-.37.01,0-.06.21-.16.46h-.01c-.17.43-.48.78-.69.78-.17,0-.42-.41-.28-.46Z" fill="#fff" stroke-width="0"/>
    <path d="M26.69,22.72c-1.37.06-1.49-.15-.15-.27.95-.09,1.28-.2,2.19-.75.55-.33.78-.38.58-.15-.07.09-.46.38-.84.64-.65.46-.75.48-1.78.53Z" fill="#fff" stroke-width="0"/>
    <path d="M26.07,22.04l.09-.42c.12-.58.28-.97.39-.97.05,0,.2.11.35.26.25.23.33.25.64.12.27-.11.42-.11.68.02s.3.21.18.3c-.37.3-.95.5-1.62.59l-.71.1Z" fill="#fff" stroke-width="0"/>
    <path d="M24.11,21.26c-.5.17-.47-.07.05-.3.22-.09.57-.32.76-.5.21-.2.41-.34.44-.33.05,0,.21-.11.36-.27.47-.49.44-.23-.05.49-.25.37-.42.68-.38.68.02,0,.25-.17.49-.38.66-.59.5-.25-.21.47-.79.76-1.7,1.26-1.7.92,0-.05.28-.18.62-.31.34-.12.62-.27.62-.33,0-.17-.22-.26-.31-.12-.1.16-.94.52-1.02.44-.02-.04.26-.21.64-.41.66-.32.87-.53.52-.53-.09,0-.23.07-.31.17-.09.1-.31.23-.52.31Z" fill="#fff" stroke-width="0"/>
    <path d="M23.94,22.92c-.39.26-.43.23-.34-.21.07-.37.14-.41.45-.17.21.15.2.17-.11.38Z" fill="#fff" stroke-width="0"/>
    <path d="M24.58,22.36c-.26,0-.26-.01-.04-.15.12-.09.48-.36.79-.62.65-.52.69-.54.53-.22h0c-.21.4-1,1.01-1.28.99Z" fill="#fff" stroke-width="0"/>
    <path d="M22.45,24.36c-.2.21-.47.43-.6.49-.14.07,0-.1.3-.37.63-.59.82-.66.31-.12h-.01Z" fill="#fff" stroke-width="0"/>
    <path d="M21.24,25.12s-.23.22-.58.46c-.49.32-.82.43-1.56.52-.53.06-1.18.16-1.48.23-.54.11-1.75-.01-2.61-.28-.39-.11-2.09-1.14-2.09-1.26,0-.04-.02-.14-.06-.23-.05-.1.48.1,1.26.48.73.36,1.54.7,1.78.79h0c.32.08.96.1,1.97.04,1.26-.06,1.67-.14,2.42-.43.5-.2.92-.34.95-.32Z" fill="#fff" stroke-width="0"/>
    <path d="M13.52,23.84c-.95-.8-.68-.81.37-.01.52.41,1.13.82,1.35.95.23.11.39.23.36.27-.11.11-1.46-.68-2.08-1.21Z" fill="#fff" stroke-width="0"/>
    <path d="M13.42,24.23c-.27-.21-.49-.44-.49-.5,0-.07.22.06.49.27.26.21.48.43.49.51,0,.06-.22-.07-.49-.28Z" fill="#fff" stroke-width="0"/>
    <path d="M12.07,24.06c-.12-.14-.09-.22.14-.37.27-.2.28-.18.36.07.04.16.05.32.02.37-.09.16-.37.11-.52-.07Z" fill="#fff" stroke-width="0"/>
    <path d="M9.21,23.9c-.47-.23-1.08-.78-1.08-.96,0-.06.12,0,.28.14.15.14.52.38.81.53.37.18.84.28,1.39.32,1.3.06,1.39.26.11.22-.73-.02-1.24-.11-1.51-.25Z" fill="#fff" stroke-width="0"/>
    <path d="M8.49,24.09c0-.17.11-.15.47.11h0c.54.38,2.63.6,3.32.35.16-.06.27-.05.27.02,0,.06-.28.21-.63.32-.6.21-.76.21-2.31.01-.31-.04-1.12-.63-1.12-.81Z" fill="#fff" stroke-width="0"/>
    <path d="M2.86,24.02s.33.04.66.15c.33.1,1.18.21,1.9.23,1.07.04,1.35,0,1.74-.2.26-.12.49-.28.54-.36.04-.06.18-.12.33-.12.2,0,.23.06.17.27h0c-.04.17-.07.33-.07.38,0,.15-1.32.58-2.06.65-.89.11-2.09-.17-2.78-.63-.27-.17-.46-.33-.43-.37Z" fill="#fff" stroke-width="0"/>
    <path d="M22.61,22.71c-.79.79-.74.91.06.17.34-.32.55-.44.55-.33,0,.43-1.32,1.74-2.2,2.19-.59.3-1.7.62-2.09.6-.2,0-.04-.09.42-.22,1.24-.37,2.52-1.01,2.52-1.28,0-.05-.21.05-.47.22-.78.52-1.77.8-2.77.8-1.08,0-2.62-.37-3.36-.8-.33-.2-.52-.25-.47-.15.09.25.96.7,1.94,1.02.48.16.75.28.59.3-.65.01-3.27-1.18-3.54-1.61-.11-.18.1-.12.34.1.12.11.26.16.31.11.06-.05-.01-.15-.15-.23-.14-.07-.47-.34-.74-.62-.32-.31-.37-.39-.14-.22.46.33.7.34.27,0-.17-.14-.32-.31-.32-.38s.2.02.43.2c.54.42.57.31.04-.17-.22-.2-.34-.37-.26-.37.07,0,.18.05.22.12.04.06.2.18.34.26l.27.15-.27-.31-.28-.3.37-.14c.21-.07.37-.2.37-.27s-.16-.05-.43.06c-.65.27-1.3.21-2.08-.18-.52-.26-.64-.28-.49-.12.11.12.39.3.62.38.23.09.42.2.42.25s.1.11.22.11c.11.01.01.06-.22.11-.38.07-.39.1-.1.11.18,0,.37.07.41.15.09.12-.48.07-1.1-.1-.15-.04-.21-.01-.17.1.04.1.3.21.6.26.36.05.22.06-.38.04-.52-.04-1.17-.14-1.46-.25-.63-.22-.73-.23-.54-.05.17.17,1.37.48,1.92.48.63,0,.58.25-.06.27h-.51l.45.06c.25.02.46.11.46.18,0,.22-1.53.01-2.36-.32-.42-.17-.79-.3-.81-.26-.07.07.44.31,1.45.69,1.03.38.97.46-.16.16-1.23-.32-2.18-.91-2.18-1.37,0-.1.14-.02.31.17.16.18.31.28.31.2,0-.07-.05-.18-.12-.22-.39-.25.09-.33.68-.12.25.09.25.07,0-.11-.17-.13-.17-.26,0-.39.23-.18.23-.2,0-.11-.49.17-1.27.21-1.49.07-.2-.11-.15-.12.22-.06.26.04.65,0,.92-.09.26-.09.54-.15.63-.14.07.02.15-.01.15-.09,0-.06-.15-.09-.33-.05-.2.04-.64.09-1,.12-.63.06-.66.04-1.13-.43-.36-.36-.49-.43-.49-.28,0,.12.14.34.31.5.39.37.39.58,0,.32-.23-.15-.28-.16-.23-.02.04.09.26.27.49.39.41.22.54.42.3.42-.07,0-.27-.09-.44-.2-.16-.11-.33-.17-.37-.14-.04.02.14.18.38.33.62.38.46.44-.27.11-.32-.15-.68-.28-.78-.31s-.28-.16-.41-.31-.26-.23-.31-.18c-.18.2,1.24,1.07,2.04,1.24.21.04.39.14.39.2,0,.2-1.54-.25-2.06-.59-.16-.11-.32-.16-.37-.11-.09.07,1.69.94,1.96.94.09,0,.25.06.34.14.47.33-1-.07-1.82-.5-.49-.26-.92-.42-.95-.36-.04.05.5.38,1.19.73.7.33,1.11.58.9.54-.65-.15-1.76-.63-2.22-.97-.23-.18-.47-.32-.5-.28-.07.09,1.39,1.01,1.92,1.21s.81.44.37.31c-.55-.17-2.26-1.07-2.76-1.45-.26-.21-.46-.33-.43-.26.11.3,1.12,1.06,1.78,1.37.39.17.65.34.57.38-.28.09-2.14-1.12-2.94-1.91-.42-.42-.8-.9-.85-1.07-.04-.18-.12-.32-.18-.32-.27,0-.05.43.65,1.32.57.69.98,1.07,1.54,1.39.43.23.78.47.78.53,0,.12-1.19-.48-1.7-.86-.22-.17-.44-.28-.48-.25s.17.21.44.38c.65.42.65.54,0,.17-.7-.39-1.55-1.34-1.92-2.15-.26-.57-.31-.8-.25-1.39.06-.78.44-1.75.85-2.18.66-.71,2.71-1.02,3.51-.53.23.14.43.38.48.58.04.18.09.39.1.47.06.26.37-.5.33-.86-.02-.5-.26-.71-.26-.25,0,.28-.04.32-.12.18-.06-.1-.09-.31-.04-.46.09-.37-.06-.37-.21-.01-.1.27-.11.26-.11-.07-.01-.34-.02-.36-.2-.12s-.17.23-.18,0c0-.15-.05-.16-.16-.01s-.2.17-.26.09c-.09-.15.33-.44,1.5-1.1.36-.18.64-.37.64-.41,0-.11-.87-.76-.94-.7-.04.04.09.21.28.38.18.17.3.32.22.32-.06,0-.32-.21-.58-.46s-.47-.39-.47-.33c0,.07.21.33.46.58.52.53.37.62-.22.12-.36-.31-.38-.31-.25-.06.09.17.1.27.02.27s-.21-.17-.32-.37c-.21-.41-.31-.47-.31-.18,0,.11.15.33.32.49.33.31.63.42.48.18-.04-.07-.02-.12.05-.12.25,0,.26.23.02.31-.32.1-.65-.09-1.06-.58l-.33-.41.25.46c.32.57.15.63-.21.06-.14-.21-.26-.31-.26-.21s.17.36.39.58c.39.42.36.54-.07.22s-.69-.85-.69-1.39c0-.32-.05-.5-.12-.46-.21.14-.14.74.18,1.35.16.33.28.63.26.64-.02.02-.18-.12-.37-.33-.26-.32-.32-.5-.32-1.08.01-1.48,1-2.67,2.57-3.1.65-.17.78-.09.34.26-.18.14-.33.31-.33.37,0,.07.21-.05.47-.25.55-.46,1.37-.75,2.02-.75.53,0,.87.14,1.3.53.15.14.27.18.27.11s-.05-.17-.12-.21c-.06-.04-.12-.14-.12-.2,0-.07.06-.09.12-.05.07.04.12.02.12-.05,0-.06-.06-.16-.14-.2-.07-.06-.1-.33-.06-.73l.06-.63-.22.68c-.21.59-.23.63-.25.3-.01-.21.07-.63.17-.91.22-.63.23-.71.05-.53-.07.07-.23.5-.34.96-.12.47-.26.78-.31.7-.04-.07.01-.38.11-.7.11-.31.17-.64.15-.71-.02-.09-.16.21-.31.65-.14.44-.26.69-.26.57-.02-.46.48-1.9.86-2.42.21-.3.6-.75.89-1,.28-.26.44-.47.36-.47-.27,0-1.29,1.13-1.67,1.85-.2.36-.46,1.02-.58,1.48-.21.76-.22.78-.22.3-.01-.27.11-.85.25-1.28.49-1.43,2.38-3.08,3.86-3.37.34-.07.36-.06.14.11-.32.25-.21.23.46-.06,1.08-.48,2.36-.53,4.1-.17l.05-.04c1.23.26,2.74,1.02,3.57,1.8.65.62,1.5,2.06,1.35,2.3-.16.25.34.23.82-.01.69-.34,1.67-.34,2.52.02.7.31,1.54,1.13,1.82,1.78.26.63.22,1.45-.07,1.72-.17.15-.18.06-.05-.25.2-.47.15-1.29-.07-1.29-.05,0-.05.2.01.43.1.33.07.52-.07.81-.11.21-.23.36-.27.32-.02-.04,0-.17.07-.31.07-.15.14-.44.12-.66v-.41l-.12.47c-.14.58-.33.95-.49.95-.07,0-.04-.12.06-.27.11-.15.2-.44.18-.65v-.37l-.11.42c-.1.41-.49.94-.49.66,0-.09.06-.18.12-.22.07-.04.12-.2.12-.34,0-.22-.04-.21-.2.12-.2.41-.48.58-.34.22.06-.14.02-.17-.15-.1-.14.04-.27.14-.32.21-.07.1-.1.1-.1,0,0-.09-.14-.11-.31-.07-.17.02-.31.11-.31.17s.04.09.1.05c.15-.09,1.28.16,1.59.36.16.11.26.25.22.32-.05.06-.16.04-.26-.07-.11-.1-.37-.17-.58-.17l-.39.02.37.05c.55.09.66.27.21.36-.22.05-.39.14-.39.2s.05.09.12.04c.06-.04.04.09-.06.27-.23.44-.12.52.18.14.58-.75,1.59-.71,2.39.07.28.3.46.38.58.31.14-.09.11-.12-.1-.18-.47-.14-.17-.3.37-.22.28.05.48.04.43-.01s-.38-.14-.74-.18l-.65-.1h.69c.89-.02,1.66.44,2.25,1.35.5.8.6,1.1.59,1.8-.02.8-.5,1.69-1.39,2.55-.52.49-.68.6-.49.33.36-.52.25-.5-.43.05-.31.25-.59.41-.64.36s.01-.15.15-.23c.92-.57,1.21-.86,1.67-1.8.48-.95.64-1.72.36-1.72-.07,0-.1.09-.06.21.23.59-.79,2.2-1.71,2.7-.33.18-.8.47-1.02.63-.22.17-.44.28-.47.25-.04-.04.23-.26.6-.5.36-.25.76-.57.9-.71.1-.12.16-.19.16-.21.01-.01,0,0,0,0,0-.01-.06.03-.17.11-.14.1-.41.31-.6.47-.46.37-1.06.68-1.06.54,0-.06.28-.28.63-.5.34-.21.6-.42.57-.46s-.27.06-.54.23c-.58.36-.9.48-.9.34,0-.06.16-.17.36-.26.2-.07.47-.26.59-.39.21-.25.2-.25-.31.01-.3.15-.58.25-.62.21s-.04-.09,0-.11.28-.18.55-.36c.38-.25.52-.41.52-.64,0-.36-.16-.43-.27-.14-.04.1,0,.18.07.18.2,0-.14.36-.53.57-.52.26-.58.21-.17-.15.33-.27.33-.3.06-.16l-.31.15.25-.3c.15-.16.33-.41.43-.54.11-.15.1-.17-.05-.06-.22.17-.23.16-.15-.05.05-.15,0-.17-.14-.04-.39.34-1.1.58-1.54.5-.31-.05-.36-.04-.22.06.28.21.89.16,1.39-.1.34-.17.43-.18.32-.06-.42.5-1.13.64-1.9.34-.23-.09-.23-.07-.05.15.11.12.17.32.14.42-.05.16-.04.16.14.01.12-.09.21-.12.21-.07s.09.02.18-.06c.23-.2.23-.09,0,.38-.11.2-.26.33-.32.28-.07-.04-.28.06-.46.23-.37.34-.79.58-1.02.58-.09,0,.11-.17.43-.38.33-.2.57-.39.53-.43s-.28.07-.54.25c-.25.17-.59.32-.75.32-.34,0-1.01-.33-1.01-.49,0-.07-.06-.12-.14-.12s-.01.16.12.36c.15.21.23.46.18.59-.04.14,0,.14.11.01.28-.34.34-.26.16.21-.22.53-.15.55.16.05l.23-.37-.02.62c-.02.59-.09.69-.69,1.3Z" fill="#fff" stroke-width="0"/>
    <path d="M28.77,19.48s.01-.01,0,0h0Z" fill="#4dff40" stroke-width="0"/>
    <path d="M29.99,20.53c-.26.2-.53.39-.62.41-.14.05.11.46.28.46.21,0,.52-.35.69-.78h.01c.1-.25.17-.46.16-.46-.03,0-.25.17-.52.37ZM27.44,14.13c-.13.08-.07.12.25.12.24,0,.52-.06.62-.12.13-.08.07-.12-.25-.12-.24,0-.52.06-.62.12ZM26.16,21.62l-.09.42.71-.1c.67-.09,1.25-.29,1.62-.59.12-.09.08-.17-.18-.3s-.41-.13-.68-.02c-.31.13-.39.11-.64-.12-.15-.15-.3-.26-.35-.26-.11,0-.27.39-.39.97ZM26.54,22.45c-1.34.12-1.22.33.15.27,1.03-.05,1.13-.07,1.78-.53.38-.26.77-.55.84-.64.2-.23-.03-.18-.58.15-.91.55-1.24.66-2.19.75ZM24.54,22.21c-.22.14-.22.15.04.15.28.02,1.07-.59,1.28-.98h0c.16-.33.12-.31-.53.21-.31.26-.67.53-.79.62ZM24.05,22.54c-.31-.24-.38-.2-.45.17-.09.44-.05.47.34.21.31-.21.32-.23.11-.38ZM24.16,20.96c-.52.23-.55.47-.05.3.21-.08.43-.21.52-.31.08-.1.22-.17.31-.17.35,0,.14.21-.52.53-.38.2-.66.37-.64.41.08.08.92-.28,1.02-.44.09-.14.31-.05.31.12,0,.06-.28.21-.62.33-.34.13-.62.26-.62.31,0,.34.91-.16,1.7-.92.71-.72.87-1.06.21-.47-.24.21-.47.38-.49.38-.04,0,.13-.31.38-.68.49-.72.52-.98.05-.49-.15.16-.31.28-.36.27-.03-.01-.23.13-.44.33-.19.18-.54.41-.76.5ZM13.89,23.83c-1.05-.8-1.32-.79-.37.01.62.53,1.97,1.32,2.08,1.21.03-.04-.13-.16-.36-.27-.22-.13-.83-.54-1.35-.95ZM12.93,23.73c0,.06.22.29.49.5s.49.34.49.28c0-.08-.23-.3-.49-.51-.27-.21-.49-.34-.49-.27ZM12.21,23.69c-.23.15-.26.23-.14.37.15.18.43.23.52.07.03-.05.02-.21-.02-.37-.08-.25-.09-.27-.36-.07ZM8.96,24.2c-.36-.26-.47-.28-.47-.11,0,.18.81.77,1.12.81,1.55.2,1.71.2,2.31-.01.35-.11.63-.26.63-.32,0-.07-.11-.08-.27-.02-.69.25-2.78.03-3.32-.34h0ZM8.41,23.08c-.16-.14-.28-.2-.28-.14,0,.18.61.73,1.08.96.27.14.78.23,1.51.25,1.28.04,1.19-.16-.11-.22-.55-.04-1.02-.14-1.39-.32-.29-.15-.66-.39-.81-.53ZM2.86,24.02s.16.2.43.37c.69.46,1.89.74,2.78.63.74-.07,2.06-.5,2.06-.65,0-.05.03-.21.07-.37h0c.06-.22.03-.28-.17-.28-.15,0-.29.06-.33.12-.05.08-.28.24-.54.36-.39.2-.67.24-1.74.2-.72-.02-1.57-.13-1.9-.23-.33-.11-.62-.17-.66-.15ZM20.66,25.58c.35-.24.61-.44.58-.46s-.45.12-.95.32c-.75.29-1.16.37-2.42.43-1.01.06-1.65.04-1.97-.05h0c-.24-.08-1.05-.42-1.78-.78-.78-.38-1.31-.58-1.26-.48.04.09.06.19.06.23,0,.12,1.7,1.15,2.09,1.26.86.27,2.07.39,2.61.28.3-.07.95-.17,1.48-.23.74-.09,1.07-.2,1.56-.52ZM21.02,24.74c.88-.45,2.2-1.76,2.2-2.19,0-.11-.21.01-.55.33-.8.74-.85.62-.06-.17.6-.61.67-.71.69-1.3l.02-.62-.23.37c-.31.5-.38.48-.16-.05.18-.47.12-.55-.16-.21-.11.13-.15.13-.11-.01.05-.13-.03-.38-.18-.59-.13-.2-.2-.36-.12-.36s.14.05.14.12c0,.16.67.49,1.01.49.16,0,.5-.15.75-.32.26-.18.5-.29.54-.25s-.2.23-.53.43c-.32.21-.52.38-.43.38.23,0,.65-.24,1.02-.58.18-.17.39-.27.46-.23.06.05.21-.08.32-.28.23-.47.23-.58,0-.38-.09.08-.18.11-.18.06s-.09-.02-.21.07c-.18.15-.19.15-.14-.01.03-.1-.03-.3-.14-.42-.18-.22-.18-.24.05-.15.77.3,1.48.16,1.9-.34.11-.12.02-.11-.32.06-.5.26-1.11.31-1.39.1-.14-.1-.09-.11.22-.06.44.08,1.15-.16,1.54-.5.14-.13.19-.11.14.04-.08.21-.07.22.15.05.15-.11.16-.09.05.06-.1.13-.28.38-.43.54l-.25.3.31-.15c.27-.14.27-.11-.06.16-.41.36-.35.41.17.15.39-.21.73-.57.53-.57-.07,0-.11-.08-.07-.18.11-.29.27-.22.27.14,0,.23-.14.39-.52.64-.27.18-.52.34-.55.36s-.03.07,0,.11.32-.06.62-.21c.51-.26.52-.26.31-.01-.12.13-.39.32-.59.39-.2.09-.36.2-.36.26,0,.14.32.02.9-.34.27-.17.51-.27.54-.23s-.23.25-.57.46c-.35.22-.63.44-.63.5,0,.14.6-.17,1.06-.54.19-.16.46-.37.6-.47.11-.08.17-.12.17-.11,0,.02-.06.09-.16.21-.14.14-.54.46-.9.71-.37.24-.64.46-.6.5.03.03.25-.08.47-.25.22-.16.69-.45,1.02-.63.92-.5,1.94-2.11,1.71-2.7-.04-.12-.01-.21.06-.21.28,0,.12.77-.36,1.72-.46.94-.75,1.23-1.67,1.8-.14.08-.2.18-.15.23s.33-.11.64-.36c.68-.55.79-.57.43-.05-.19.27-.03.16.49-.33.89-.86,1.37-1.75,1.39-2.55.01-.7-.09-1-.59-1.8-.59-.91-1.36-1.37-2.25-1.35h-.69l.65.1c.36.04.69.13.74.18s-.15.06-.43.01c-.54-.08-.84.08-.37.22.21.06.24.09.1.18-.12.07-.3-.01-.58-.31-.8-.78-1.81-.82-2.39-.07-.3.38-.41.3-.18-.14.1-.18.12-.31.06-.27-.07.05-.12.02-.12-.04s.17-.15.39-.2c.45-.09.34-.27-.21-.36l-.37-.05.39-.02c.21,0,.47.07.58.17.1.11.21.13.26.07.04-.07-.06-.21-.22-.32-.31-.2-1.44-.45-1.59-.36-.06.04-.1.01-.1-.05s.14-.15.31-.17c.17-.04.31-.02.31.07,0,.1.03.1.1,0,.05-.07.18-.17.32-.21.17-.07.21-.04.15.1-.14.36.14.19.34-.22.16-.33.2-.34.2-.12,0,.14-.05.3-.12.34-.06.04-.12.13-.12.22,0,.28.39-.25.49-.66l.11-.42v.37c.02.21-.07.5-.18.65-.1.15-.13.27-.06.27.16,0,.35-.37.49-.95l.12-.47v.41c.02.22-.05.51-.12.66-.07.14-.09.27-.07.31.04.04.16-.11.27-.32.14-.29.17-.48.07-.81-.06-.23-.06-.43-.01-.43.22,0,.27.82.07,1.29-.13.31-.12.4.05.25.29-.27.33-1.09.07-1.72-.28-.65-1.12-1.47-1.82-1.78-.85-.36-1.83-.36-2.52-.02-.48.24-.98.26-.82.01.15-.24-.7-1.68-1.35-2.3-.83-.78-2.34-1.54-3.57-1.8l-.05.04c-1.74-.36-3.02-.31-4.1.17-.67.29-.78.31-.46.06.22-.17.2-.18-.14-.11-1.48.29-3.37,1.94-3.86,3.37-.14.43-.26,1.01-.25,1.28,0,.48,0,.46.22-.3.12-.46.38-1.12.58-1.48.38-.72,1.4-1.85,1.67-1.85.08,0-.08.21-.36.47-.29.25-.68.7-.89,1-.38.52-.88,1.96-.86,2.42,0,.12.12-.13.26-.57.15-.44.29-.74.31-.65.02.07-.04.4-.15.71-.1.32-.15.63-.11.7.05.08.19-.23.31-.7.11-.46.27-.89.34-.96.18-.18.17-.1-.05.53-.1.28-.18.7-.17.91.02.33.04.29.25-.3l.22-.68-.06.63c-.04.4,0,.67.06.73.08.04.14.14.14.2,0,.07-.05.09-.12.05-.06-.04-.12-.02-.12.05,0,.06.06.16.12.2.07.04.12.14.12.21s-.12.03-.27-.11c-.43-.39-.77-.53-1.3-.53-.65,0-1.47.29-2.02.75-.26.2-.47.32-.47.25,0-.06.15-.23.33-.37.44-.35.31-.43-.34-.26-1.57.43-2.56,1.62-2.57,3.1,0,.58.06.76.32,1.08.19.21.35.35.37.33.02,0-.1-.31-.26-.64-.32-.61-.39-1.21-.18-1.35.07-.04.12.14.12.46,0,.54.26,1.07.69,1.39s.46.2.07-.22c-.22-.22-.39-.48-.39-.58s.12,0,.26.21c.36.57.53.51.21-.06l-.25-.46.33.41c.41.49.74.68,1.06.58.24-.08.23-.31-.02-.31-.07,0-.09.05-.05.12.15.24-.15.13-.48-.18-.17-.16-.32-.38-.32-.49,0-.29.1-.23.31.18.11.2.24.37.32.37s.07-.1-.02-.27c-.13-.25-.11-.25.25.06.59.5.74.41.22-.12-.25-.25-.46-.51-.46-.58,0-.06.21.08.47.33s.52.46.58.46c.08,0-.04-.15-.22-.32-.19-.17-.32-.34-.28-.38.07-.06.94.59.94.7,0,.04-.28.23-.64.41-1.17.66-1.59.95-1.5,1.1.06.08.15.06.26-.09s.16-.14.16.01c.01.23,0,.24.18,0s.19-.22.2.12c0,.33.01.34.11.07.15-.36.3-.36.21.01-.05.15-.02.36.04.46.08.14.12.1.12-.18,0-.46.24-.25.26.25.04.36-.27,1.12-.33.86-.01-.08-.06-.29-.1-.47-.05-.2-.25-.44-.48-.58-.8-.49-2.85-.18-3.51.53-.41.43-.79,1.4-.85,2.18-.06.59-.01.82.25,1.39.37.81,1.22,1.76,1.92,2.15.65.37.65.25,0-.17-.27-.17-.48-.35-.44-.38s.26.08.48.25c.51.38,1.7.98,1.7.86,0-.06-.35-.3-.78-.53-.56-.32-.97-.7-1.54-1.39-.7-.89-.92-1.32-.65-1.32.06,0,.14.14.18.32.05.17.43.65.85,1.07.8.79,2.66,2,2.94,1.91.08-.04-.18-.21-.57-.38-.66-.31-1.67-1.07-1.78-1.37-.03-.07.17.05.43.26.5.38,2.21,1.28,2.76,1.45.44.13.16-.11-.37-.31s-1.99-1.12-1.92-1.21c.03-.04.27.1.5.28.46.34,1.57.82,2.22.97.21.04-.2-.21-.9-.54-.69-.35-1.23-.68-1.19-.73.03-.06.46.1.95.36.82.43,2.29.83,1.82.5-.09-.08-.25-.14-.34-.14-.27,0-2.05-.87-1.96-.94.05-.05.21,0,.37.11.52.34,2.06.79,2.06.59,0-.06-.18-.16-.39-.2-.8-.17-2.22-1.04-2.04-1.24.05-.05.18.03.31.18s.31.28.41.31.46.16.78.31c.73.33.89.27.27-.11-.24-.15-.42-.31-.38-.33.04-.03.21.03.37.14.17.11.37.2.44.2.24,0,.11-.2-.3-.42-.23-.12-.45-.3-.49-.39-.05-.14,0-.13.23.02.39.26.39.05,0-.32-.17-.16-.31-.38-.31-.5,0-.15.13-.08.49.28.47.47.5.49,1.13.43.36-.03.8-.08,1-.12.18-.04.33-.01.33.05,0,.08-.08.11-.15.09-.09-.01-.37.05-.63.14-.27.09-.66.13-.92.09-.37-.06-.42-.05-.22.06.22.14,1,.1,1.49-.07.24-.09.24-.07,0,.11-.17.13-.17.26,0,.39.24.18.24.2,0,.11-.59-.21-1.07-.13-.68.12.07.04.12.15.12.22,0,.08-.15-.02-.31-.2-.17-.19-.31-.27-.31-.17,0,.46.95,1.05,2.18,1.37,1.13.3,1.19.22.16-.16-1.01-.38-1.52-.62-1.45-.69.02-.04.39.09.81.26.83.33,2.36.54,2.36.32,0-.07-.21-.16-.46-.18l-.45-.06h.51c.64-.02.69-.27.06-.27-.55,0-1.75-.31-1.92-.48-.19-.18-.09-.17.54.05.29.11.94.21,1.46.25.6.02.74.01.38-.04-.3-.05-.56-.16-.6-.26-.04-.11.02-.14.17-.1.62.17,1.19.22,1.1.1-.04-.08-.23-.15-.41-.15-.29-.01-.28-.04.1-.11.23-.05.33-.1.22-.11-.12,0-.22-.06-.22-.11s-.19-.16-.42-.25c-.23-.08-.51-.26-.62-.38-.15-.16-.03-.14.49.12.78.39,1.43.45,2.08.18.27-.11.43-.13.43-.06s-.16.2-.37.27l-.37.14.28.3.27.31-.27-.15c-.14-.08-.3-.2-.34-.26-.04-.07-.15-.12-.22-.12-.08,0,.04.17.26.37.53.48.5.59-.04.17-.23-.18-.43-.27-.43-.2s.15.24.32.38c.43.34.19.33-.27,0-.23-.17-.18-.09.14.22.27.28.6.55.74.62.14.08.21.18.15.23-.05.05-.19,0-.31-.11-.24-.22-.45-.28-.34-.1.27.43,2.89,1.62,3.54,1.61.16-.02-.11-.14-.59-.3-.98-.32-1.85-.77-1.94-1.02-.05-.1.14-.05.47.15.74.43,2.28.8,3.36.8,1,0,1.99-.28,2.77-.8.26-.17.47-.27.47-.22,0,.27-1.28.91-2.52,1.28-.46.13-.62.22-.42.22.39.02,1.5-.3,2.09-.6ZM21.85,24.85c.13-.06.4-.28.6-.49h.01c.51-.54.32-.47-.31.12-.3.27-.44.44-.3.37ZM24.06,23.28c-1.54,2.25-2,2.67-3.8,3.42-1.15.48-1.87.56-3.27.39-1.53-.19-2.47-.52-3.61-1.26-.78-.51-.98-.6-1.19-.49-.13.07-.79.13-1.45.12-1.03-.01-1.29-.06-1.77-.32l-.57-.31-.48.25c-1.19.6-3.1.65-4.27.1-.85-.4-1.43-.85-2.09-1.69-.79-.99-.98-1.42-1.05-2.34-.06-.88.24-2.13.73-3.08.27-.54,1-1.17,1.55-1.35.37-.13.57-.36.3-.36-.06,0-.19-.2-.26-.43-.19-.58-.03-1.92.31-2.71.33-.78.84-1.21,2.03-1.75.74-.35,1.03-.42,1.49-.37l.57.05.15-.57c.33-1.24.99-2.36,1.94-3.3,1.59-1.55,3.04-2.07,5.7-2.07,1.51.01,1.76.05,2.74.38.55.2,1.01.33,1.06.33-.06-.06-.33-.2-.65-.34-.82-.36-2.01-.68-2.54-.68-.22,0-.36-.05-.31-.12.2-.12,1.1.02,2.14.34,1,.32,2.3,1.15,3.08,1.97.66.7,1.33,1.62,1.53,2.09.2.48.19.47.95.25,1.19-.37,2.74.15,3.59,1.21.71.88.87,1.28.85,2.25v.87l.57.09c1.08.16,2.21.99,2.95,2.13.48.76.56,1.28.38,2.57-.22,1.54-.54,2.52-.98,2.94-.19.2-.56.57-.82.84-.86.87-1.19,1.01-2.83,1.18-1.38.15-1.57.14-2.07-.06-.32-.11-.58-.19-.6-.17Z" fill="#4dff40" stroke-width="0"/>
  </g>
  <path d="M9.55,8.43c-.25.39-.44.76-.44.84.01.15.22-.12.53-.69.12-.21.25-.36.28-.32s-.02.21-.14.38c-.12.18-.16.32-.07.32.07,0,.21-.17.32-.37.12-.23.14-.37.06-.37-.09,0-.11-.1-.06-.25.14-.42-.02-.27-.48.46Z" fill="#4dff40" stroke-width="0"/>
  <path d="M19.48,9.33c-.3.12-.37.31-.17.43.07.04.5.11.98.17.52.07,1.26.28,1.88.57,1.45.64,1.43.63,1.21.41-.2-.21-3.32-1.7-3.51-1.69-.07,0-.25.05-.39.11Z" fill="#4dff40" stroke-width="0"/>
  <path d="M12.8,10.22c-.44.34-1.1.87-1.44,1.17-.36.28-.89.59-1.17.68-.46.12-.48.15-.22.2.5.09,1.24-.22,1.83-.76.82-.76,1.33-1.08,2.14-1.37.39-.14.74-.31.74-.37.01-.07-.22-.14-.53-.16-.5-.04-.62.02-1.35.62h0Z" fill="#4dff40" stroke-width="0"/>
  <path d="M9.85,10.49c0,.37.05.7.1.74.06.04.1-.27.1-.68-.01-.39-.05-.73-.1-.73-.06,0-.1.3-.1.66h0Z" fill="#4dff40" stroke-width="0"/>
  <path d="M22.61,10l-.34.15.32.15c.17.07.31.1.31.04s-.07-.15-.15-.17c-.1-.04-.09-.07.05-.07.11-.01.25-.07.28-.14.1-.16-.04-.15-.47.05h0Z" fill="#4dff40" stroke-width="0"/>
  <path d="M19.32,10.06c0,.07.04.14.1.14.23,0,1.46.23,1.67.32.16.06.21.05.15-.05-.04-.07-.39-.2-.79-.27-.38-.07-.8-.17-.91-.2-.12-.04-.22-.01-.22.06Z" fill="#4dff40" stroke-width="0"/>
  <path d="M13.92,10.32c-.36.12-.74.31-.85.42-.17.16-.1.16.41-.04.34-.14.76-.28.96-.32.18-.04.33-.12.33-.18,0-.16-.05-.15-.85.12Z" fill="#4dff40" stroke-width="0"/>
  <path d="M19.94,13.8c-.42.21-.62.65-.62,1.39,0,.97.14,1.07,1.43,1.05.64-.01,1.33-.11,1.66-.22.54-.2.62-.2,1.11,0,.28.11.55.18.58.15.16-.16-.44-1.08-1.1-1.71-.58-.54-.81-.69-1.13-.69h-.39l.55.32c.55.32.76.53.68.66-.02.05.14.15.37.22.37.14.64.47.5.6-.02.02-.37,0-.76-.07s-1.13-.14-1.65-.14c-.78,0-1.01.05-1.28.26l-.32.25v-.31c0-.36.33-.62.95-.75.22-.05.43-.14.47-.2.1-.15-.38-.15-.89,0-.57.16-.63-.04-.16-.49.43-.44.43-.53,0-.32Z" fill="#4dff40" stroke-width="0"/>
  <path d="M11.74,16.65c.16-.16,1.4-.38,2.01.02.26.18.41.25.32.14-.23-.27.09-.34,1.32-.32.95.02,1.06,0,1.27-.26.25-.3.27-.54.09-.92-.1-.21-.11-.2-.07.09.02.18,0,.31-.05.27-.06-.04-.11-.14-.11-.22,0-.27-.73-1.18-1.14-1.43-.64-.39-.97-.31-.36.09h-.03c.52.32,1.13,1.29.95,1.48-.05.05-.73.09-1.51.09-1.49.01-2.55.22-3.2.65-.33.21-1.01,1.08-1.01,1.29,0,.07.07.04.16-.07l1.36-.9Z" fill="#4dff40" stroke-width="0"/>
  <path d="M3.69,14.34c0,.25.21.62.3.53.02-.04.02-.21,0-.41-.07-.37-.28-.46-.28-.12h0Z" fill="#4dff40" stroke-width="0"/>
  <path d="M11.96,14.65c-.36.39-1.26,1.74-1.19,1.8.02.04.23-.14.46-.38.25-.26.63-.49.96-.59.31-.09.64-.22.74-.31s.33-.2.53-.23c.18-.05.37-.14.39-.2.07-.11-1.08.21-1.44.39-.11.06-.3.11-.39.11-.16,0-.15-.07.06-.43.3-.49.26-.54-.11-.16h-.01Z" fill="#4dff40" stroke-width="0"/>
  <path d="M6.52,14.83c0,.21.43.52.59.42.11-.06.1-.15-.05-.33-.18-.23-.2-.23-.11,0,.07.23.06.23-.18.01-.14-.12-.25-.17-.25-.1Z" fill="#4dff40" stroke-width="0"/>
  <path d="M7.29,14.94c.02.15.16.22.38.23.31.02.49-.16.21-.2-.25-.04-.31-.05-.47-.16-.12-.07-.16-.04-.12.12h0Z" fill="#4dff40" stroke-width="0"/>
  <path d="M18.68,15.6c-.16.71-.12.82.37,1.03.7.3,1.06.38.96.22-.06-.09.07-.14.38-.15.44-.01.43-.01-.27-.21-.53-.15-.78-.28-.86-.49-.14-.32-.33-.37-.22-.06.11.33.31.54.59.65.18.09.2.11.05.11-.42.02-.84-.47-.87-1.01l-.04-.52-.09.42h0Z" fill="#4dff40" stroke-width="0"/>
  <path d="M17.36,15.82c-.01.21-.07.43-.14.47-.09.05-.11-.02-.06-.22.05-.17.02-.34-.05-.38-.09-.06-.14.02-.14.17s-.14.38-.32.52c-.38.31-.3.46.12.18.22-.15.32-.16.36-.05.02.09.14.01.25-.17.16-.25.18-.39.1-.62-.11-.28-.12-.28-.12.1Z" fill="#4dff40" stroke-width="0"/>
  <path d="M30.69,17.2c.01.62-.06.86-.5,1.72-.28.55-.43.95-.33.86.26-.21,1.16-2.07,1.16-2.4,0-.15-.05-.31-.12-.36-.06-.04-.09-.15-.05-.23.04-.1.01-.21-.05-.25s-.11.23-.1.65h-.01Z" fill="#4dff40" stroke-width="0"/>
  <path d="M15.25,17.17c-.3.11-.52.33-.65.6-.25.54-.26.8,0,.44l.18-.27.53.43c.28.23.79.54,1.12.69.7.31,2.02.46,2.35.26.2-.12.16-.14-.26-.15-1.23,0-2.76-.66-3.05-1.32-.12-.28-.11-.34.14-.5.26-.17.37-.41.18-.38-.06.01-.3.1-.54.2Z" fill="#4dff40" stroke-width="0"/>
  <path d="M26.42,17.23c-.04.11-.27.27-.5.36-.48.17-.58.36-.21.36.32,0,.92-.53.85-.74-.04-.14-.07-.14-.14.02Z" fill="#4dff40" stroke-width="0"/>
  <path d="M21.35,17.5c.2.3.18.32-.25.8-.27.3-.7.59-1.08.74-.5.2-.58.25-.31.25.65.02,1.87-.66,2.02-1.12.07-.23.26-.25.84-.02.11.04.2.02.2-.05,0-.06-.15-.16-.33-.21-.2-.04-.52-.21-.74-.38-.49-.37-.59-.37-.34,0h-.01Z" fill="#4dff40" stroke-width="0"/>
  <path d="M26.48,17.84c-.16.12-.48.26-.71.31-.3.05-.39.12-.31.21.16.16,1.19-.22,1.29-.49.11-.28.05-.3-.27-.02h0Z" fill="#4dff40" stroke-width="0"/>
  <path d="M28.38,18.64c-.49.58-.55.84-.1.41.32-.28.69-.84.63-.9-.02-.02-.26.2-.53.49Z" fill="#4dff40" stroke-width="0"/>
  <path d="M29.73,18.29c-.04.11-.25.39-.44.63-.21.22-.36.43-.33.47.07.06,1.07-1.07,1.07-1.21,0-.2-.23-.11-.3.11Z" fill="#4dff40" stroke-width="0"/>
  <path d="M28.66,18.94c-.25.27-.37.48-.28.48.16,0,.86-.84.78-.91-.02-.02-.25.17-.49.43h-.01Z" fill="#4dff40" stroke-width="0"/>
  <path d="M1.78,19.57c-.21.7-.23.96-.09.96.05,0,.15-.26.23-.59.07-.32.17-.68.22-.8s.04-.21-.05-.21c-.06,0-.21.28-.32.64h0Z" fill="#4dff40" stroke-width="0"/>
  <path d="M1.23,19.38c-.17.43-.15,1.26.06,1.82.21.6.95,1.67,1.08,1.59.06-.04-.04-.21-.21-.39-.5-.53-.73-1.21-.73-2.33,0-.55-.02-1.01-.05-1.01s-.1.15-.16.32h.01Z" fill="#4dff40" stroke-width="0"/>
  <path d="M24.19,19.78c-.23.25-.5.38-.8.42l-.44.05h.49c.36.04.63-.05.96-.27.25-.17.46-.37.46-.43,0-.23-.33-.12-.66.23h0Z" fill="#4dff40" stroke-width="0"/>
  <path d="M6.47,19.82c-.05.18-.05.42.02.54.16.3.23.06.15-.44-.07-.43-.09-.43-.17-.1Z" fill="#4dff40" stroke-width="0"/>
  <path d="M22.69,19.81c-.05.1.39.23.76.23.14,0,.34-.07.46-.16.18-.12.11-.15-.48-.15-.38,0-.71.04-.74.07h0Z" fill="#4dff40" stroke-width="0"/>
  <path d="M6.89,20.15c0,.12.1.31.21.39.18.15.2.15.12-.05-.05-.12-.09-.31-.09-.41s-.05-.17-.12-.17c-.06,0-.12.1-.12.23h0Z" fill="#4dff40" stroke-width="0"/>
  <path d="M2.18,20.27c-.07.27.14.66.3.55.07-.05.07-.14-.02-.25-.07-.09-.11-.26-.06-.36.04-.1.02-.18-.04-.18s-.14.1-.17.23h0Z" fill="#4dff40" stroke-width="0"/>
  <path d="M19.97,20.42c-.22.06-.89.16-1.48.22-.59.05-.92.11-.74.12.2,0,.32.06.28.11-.04.06.37.1.89.1.52-.01,1.06.04,1.19.1.17.07.17.02.01-.15-.14-.15-.18-.27-.11-.27.06,0,.22-.09.36-.18.27-.2.16-.21-.41-.05h0Z" fill="#4dff40" stroke-width="0"/>
  <path d="M12.18,20.63c0,.18.6.39,1.11.39.27,0,.49-.06.49-.12,0-.07-.26-.12-.57-.12s-.66-.06-.8-.12c-.12-.07-.23-.09-.23-.02h0Z" fill="#4dff40" stroke-width="0"/>
  <path d="M7.32,20.77c-.06.11.49.63.66.63.21,0,1-.27,1.05-.36.04-.05-.15-.04-.42.02-.43.12-.53.1-.85-.14-.21-.15-.39-.22-.44-.16h0Z" fill="#4dff40" stroke-width="0"/>
  <path d="M11.51,20.78c.04.06.16.12.26.12s.17.06.17.14c0,.06.21.21.46.32.53.21,1.69.17,1.92-.07.12-.14.09-.15-.16-.07-.64.2-1.61.09-2.09-.25-.47-.32-.69-.39-.55-.18h-.01Z" fill="#4dff40" stroke-width="0"/>
  <path d="M2.58,21.41c0,.27.47.75.68.7.15-.02.1-.14-.23-.46-.27-.26-.44-.36-.44-.25h0Z" fill="#4dff40" stroke-width="0"/>
  <path d="M23.03,21.75c-.09.14-.2.25-.27.22-.07-.01-.22.1-.32.25-.11.16-.16.28-.12.28.15,0,1-.85.92-.92-.04-.05-.14.04-.21.17Z" fill="#4dff40" stroke-width="0"/>
  <path d="M9.6,22.71c0,.15.82.41,1.29.41s.31-.14-.33-.25c-.3-.06-.63-.15-.74-.18-.12-.05-.22-.04-.22.02Z" fill="#4dff40" stroke-width="0"/>
  <path d="M16.31,23.01c.1.15.69.39.76.31.06-.05-.62-.44-.76-.44-.04,0-.04.06,0,.14h0Z" fill="#4dff40" stroke-width="0"/>
  <path d="M19.75,23.04c-.33.09-.55.18-.48.23.15.09,1.03-.12,1.22-.3.14-.14.07-.12-.74.06h0Z" fill="#4dff40" stroke-width="0"/>
  <path d="M17.48,23.36c.17.11,1.71.18,1.59.07-.02-.02-.43-.07-.91-.11-.57-.05-.8-.04-.68.04Z" fill="#4dff40" stroke-width="0"/>
  <path d="M21.27,23.3s-.46.17-.94.31c-1.17.32-2.51.32-3.48,0-.42-.15-.78-.23-.8-.21-.25.25,1.62.69,2.94.7.75,0,1.98-.36,2.29-.68.11-.1.16-.18.12-.18s-.1.02-.14.06h0Z" fill="#4dff40" stroke-width="0"/>
  <path d="M15.31,23.72c.1.15.81.39.81.27,0-.1-.54-.38-.75-.38-.07,0-.1.05-.06.11Z" fill="#4dff40" stroke-width="0"/>
  <path d="M20.8,23.95c-.6.3-.82.33-1.97.33-.71,0-1.49-.04-1.72-.1-.3-.06-.38-.05-.3.04.07.07.79.18,1.6.25l1.45.12.9-.42c.49-.23.9-.46.9-.5,0-.11-.15-.06-.86.28Z" fill="#4dff40" stroke-width="0"/>
  <path d="M22.29,9.07c.12.33.16.36.43.23.39-.18.38-.37-.01-.27-.23.06-.31.02-.31-.12,0-.11-.05-.2-.11-.2-.07,0-.07.14,0,.36Z" fill="#4dff40" stroke-width="0"/>
  <path d="M7.14,9.75c-.06.18-.12.48-.11.66,0,.23.05.15.17-.28.17-.68.15-.91-.06-.38Z" fill="#4dff40" stroke-width="0"/>
  <path d="M27.69,13.15c0,.14-.01.28-.02.33-.02.05.15.12.36.17.22.04.37.02.33-.02-.04-.06-.16-.11-.28-.11-.17,0-.21-.07-.16-.31.02-.18,0-.31-.09-.31-.07,0-.14.11-.14.25Z" fill="#4dff40" stroke-width="0"/>
  <path d="M2.46,16.09c.06.14.09.33.05.43-.06.15-.02.18.12.12.11-.04.2-.1.2-.12,0-.15-.31-.66-.39-.66-.06,0-.05.11.02.23Z" fill="#4dff40" stroke-width="0"/>
  <path d="M31.43,19.68c-.25,1-.2,1.17.09.3.25-.75.46-2.15.32-2.15-.04,0-.11.26-.15.58" fill="#4dff40" stroke-width="0"/>
  <path d="M0,21.02c0,.28.05.5.11.5s.1-.22.09-.49c0-.27-.05-.49-.1-.49-.06-.01-.1.21-.1.48Z" fill="#4dff40" stroke-width="0"/>
  <path d="M.26,22.02c-.01.18.1.42.25.55l.27.23-.18-.37c-.11-.21-.22-.46-.26-.55-.04-.11-.07-.06-.07.14h0Z" fill="#4dff40" stroke-width="0"/>
  <path d="M12.49,25.57c-.17.28,1.9,1.5,2.95,1.74.89.2.8.06-.15-.25-.76-.23-1.49-.65-2.4-1.35-.2-.15-.36-.21-.41-.14h.01Z" fill="#4dff40" stroke-width="0"/>
</svg>